<svg xmlns="http://www.w3.org/2000/svg" viewBox="0 0 24 24"><defs><style>.a{fill:#e6ecf3;}.b{fill:none;stroke:#24272a;stroke-miterlimit:10;stroke-width:1.3px;}</style></defs><title>todos iconos</title><rect class="a" width="24" height="24" rx="12"/><path class="b" d="M16.11,9.08A4.06,4.06,0,0,0,13,6,4,4,0,0,0,8.79,7.31a3.9,3.9,0,0,0-.91,3.57A9.15,9.15,0,0,0,8.71,13a36.23,36.23,0,0,0,3,4.77c.1.14.2.27.3.42l.07-.07c.86-1.23,1.72-2.46,2.49-3.75a17.62,17.62,0,0,0,1.38-2.83A4,4,0,0,0,16.11,9.08Z"/><circle class="b" cx="12" cy="10.03" r="1.4"/></svg>